<svg width="180" height="97" viewBox="0 0 180 97" fill="none" xmlns="http://www.w3.org/2000/svg">
<path d="M155.599 4.31033e-05H180V95.6907H155.599V4.31033e-05Z" fill="#199AFC"/>
<path d="M153.831 48.375C153.831 62.8163 142.43 73.7984 129.253 73.7984C120.6 73.7984 112.713 69.0624 108.318 61.7209L85.4148 29.5756C83.0159 35.355 81.6896 41.7075 81.6896 48.375C81.6896 75.0918 102.985 96.75 129.253 96.75C155.522 96.75 176.817 75.0918 176.817 48.375C176.817 21.6583 155.522 4.31033e-05 129.253 4.31033e-05C114.575 4.31033e-05 101.449 6.76277 92.724 17.3919L107.613 36.2852C111.833 28.2323 120.116 22.9517 129.253 22.9517C142.43 22.9517 153.831 33.9338 153.831 48.375Z" fill="#199AFC"/>
<path d="M62.7481 30.959L86.11 23.6579L106.444 59.1446L87.8782 72.386L62.7481 30.959Z" fill="#199AFC"/>
<path d="M64.3615 57.9087L88.7623 88.9817V96.0437H64.3615V57.9087Z" fill="#199AFC"/>
<path d="M0 0H24.4008V95.6907H0V0Z" fill="#199AFC"/>
<path d="M63.7955 32.0916C59.2651 27.2836 52.9432 24.3641 46.1493 24.3641C34.1988 24.3641 23.7088 33.3975 21.8601 45.8522L3.71707 27.9079C11.5701 12.1853 27.6227 1.41245 46.1493 1.41245C62.9572 1.41245 77.7288 10.2793 86.1888 23.6646L63.7955 32.0916Z" fill="#199AFC"/>
</svg>
